<svg width="1300" height="1300" viewBox="0 0 1300 1300" fill="none" xmlns="http://www.w3.org/2000/svg">
<path d="M650 1300C290.71 1300 0 1008.86 0 650C0 290.71 291.141 0 650 0C1009.29 0 1300 291.141 1300 650C1300.43 1009.29 1009.29 1300 650 1300Z" fill="#F7C0B5"/>
<mask id="mask0_26_635" style="mask-type:alpha" maskUnits="userSpaceOnUse" x="0" y="0" width="1301" height="1300">
<path d="M650 1300C290.71 1300 0 1008.86 0 650C0 290.71 291.141 0 650 0C1009.29 0 1300 291.141 1300 650C1300.43 1009.29 1009.29 1300 650 1300Z" fill="#F7C0B5"/>
</mask>
<g mask="url(#mask0_26_635)">
<path d="M1014 1197.33C1010.97 1199.5 1007.5 1201.66 1004.47 1203.83C1001 1206 997.967 1208.16 994.5 1209.9C991.467 1211.63 988.867 1213.36 985.833 1215.1C985.4 1215.53 984.967 1215.53 984.534 1215.96C974.567 1222.03 964.167 1227.66 953.767 1232.86C950.733 1234.6 947.267 1236.33 944.233 1237.63C944.233 1237.63 943.8 1238.06 943.367 1238.06C939.9 1239.8 936.433 1241.53 932.967 1243.26C926.033 1246.73 918.667 1249.76 911.733 1252.8C908.267 1254.53 904.367 1255.83 900.9 1257.13C897.433 1258.43 893.533 1260.16 890.067 1261.46C886.6 1262.76 882.7 1264.5 879.233 1265.8C879.233 1265.8 879.233 1265.8 878.8 1265.8C875.333 1267.1 871.433 1268.4 867.967 1269.7C860.167 1272.3 851.933 1274.9 844.133 1277.5C841.533 1278.36 838.5 1279.23 835.9 1280.1C827.667 1282.7 819.433 1284.86 811.2 1286.6C808.167 1287.46 805.133 1287.9 801.667 1288.76C793.867 1290.5 785.633 1292.23 777.833 1293.96C776.1 1294.4 774.8 1294.4 773.067 1294.83C770.467 1295.26 767.433 1295.7 764.833 1296.13C760.933 1296.56 757.467 1297.43 753.567 1297.86C751.833 1298.3 750.1 1298.3 748.367 1298.73C746.2 1299.16 743.6 1299.6 741 1299.6C734.067 1300.46 726.7 1301.33 719.767 1302.2C717.6 1302.63 715 1302.63 712.833 1303.06H712.4C709.367 1303.5 706.333 1303.5 703.3 1303.93C700.267 1304.36 697.233 1304.36 694.2 1304.36C692.467 1304.36 690.3 1304.8 688.567 1304.8C685.1 1304.8 682.067 1305.23 679.033 1305.23C674.7 1305.23 670.8 1305.66 666.467 1305.66C662.133 1305.66 658.233 1305.66 653.9 1305.66C650.867 1305.66 647.833 1305.66 644.8 1305.66C462.367 1303.06 297.7 1225.5 180.7 1102.43C180.7 1102.43 180.7 1102 180.267 1102C193.7 1075.56 243.534 1027.9 295.534 988.465C361.4 938.632 454.567 907.865 454.567 907.865C454.567 907.865 515.667 897.898 742.3 945.132C915.2 981.532 988.867 1129.3 1014 1197.33Z" fill="#F7D3B5"/>
<path d="M790.4 1065.16C781.3 1109.8 722.367 1136.23 623.134 1096.36C501.367 1046.96 454.567 907.865 454.567 907.865C448.067 808.198 432.9 722.832 432.9 722.832C573.734 710.698 740.134 875.365 740.134 875.365L759.2 956.832C760.934 963.765 764.4 969.832 769.6 974.165C778.7 989.765 796.467 1036.56 790.4 1065.16Z" fill="#F7D3B5"/>
<path d="M769.6 974.599C686.833 970.265 625.733 958.132 560.3 840.699C615.767 889.665 681.2 908.299 750.1 916.965L759.2 956.832C760.933 964.199 764.4 970.265 769.6 974.599Z" fill="#EFBDA5"/>
<path d="M940.767 452.432C948.567 488.832 952.467 518.298 931.233 615.365C910 712.432 950.733 809.498 848.467 898.332C779.567 958.132 659.1 969.398 562.9 903.965C530.4 881.865 500.5 851.098 476.233 810.798C457.167 779.165 435.067 749.265 410.367 721.965C376.133 684.698 334.967 609.732 355.333 477.132C388.267 261.332 601.9 236.632 728 260.465C854.1 284.298 919.533 356.232 940.767 452.432Z" fill="#F7D3B5"/>
<path d="M526.067 621.865C526.067 621.865 512.633 556.865 449.367 564.665C394.767 571.598 375.7 702.465 499.633 738.865" fill="#F7D3B5"/>
<path d="M495.734 679.498C495.734 679.498 480.134 669.532 481.867 652.198C484.467 631.832 481.867 619.265 472.334 615.365C448.501 605.398 443.734 633.132 444.601 636.598" stroke="#423232" stroke-width="13" stroke-miterlimit="10" stroke-linecap="round" stroke-linejoin="round"/>
<path d="M826.367 721.532C826.367 721.532 842.833 722.398 858.433 703.765C867.1 693.365 874.467 680.365 869.7 676.465C864.933 672.132 786.5 684.265 781.3 694.665C776.1 705.065 806.433 721.532 826.367 721.532Z" fill="#EFBDA5"/>
<path d="M839.367 575.932C839.367 575.932 840.234 617.098 866.667 663.032C878.367 683.398 860.601 716.765 822.034 722.398" stroke="#423232" stroke-width="13" stroke-miterlimit="10" stroke-linecap="round" stroke-linejoin="round"/>
<path opacity="0.42" d="M604.501 743.632C629.151 743.632 649.134 727.141 649.134 706.799C649.134 686.456 629.151 669.965 604.501 669.965C579.85 669.965 559.867 686.456 559.867 706.799C559.867 727.141 579.85 743.632 604.501 743.632Z" fill="#ED938A"/>
<path opacity="0.42" d="M924.3 670.832C923 695.098 923.434 718.932 921.7 742.765C902.634 738.432 888.767 724.132 888.767 707.232C888.767 689.032 903.933 674.298 924.3 670.832Z" fill="#ED938A"/>
<path d="M683.943 619.439C673.543 619.006 665.743 610.339 666.61 599.939L667.043 587.806C667.476 577.406 676.143 569.606 686.543 570.473C696.943 570.906 704.743 579.573 703.876 589.973L703.443 602.106C703.01 612.073 694.343 619.873 683.943 619.439Z" fill="#423232"/>
<path d="M866.375 625.939C856.842 625.506 849.475 617.272 849.909 607.739L850.342 596.472C850.775 586.939 859.009 579.572 868.542 580.006C878.075 580.439 885.442 588.672 885.009 598.206L884.575 609.472C884.142 619.006 875.909 626.372 866.375 625.939Z" fill="#423232"/>
<path d="M725.977 594.306C725.977 594.306 714.71 578.273 695.21 575.239C679.177 572.639 661.41 580.439 658.81 589.539" stroke="#423232" stroke-width="13" stroke-miterlimit="10" stroke-linecap="round" stroke-linejoin="round"/>
<path d="M853.809 598.206C853.809 598.206 853.809 584.339 873.743 584.339C890.209 584.339 897.143 599.506 897.143 599.506" stroke="#423232" stroke-width="13" stroke-miterlimit="10" stroke-linecap="round" stroke-linejoin="round"/>
<path d="M743.743 524.539C752.843 527.573 761.943 519.339 760.209 509.373C759.343 504.173 757.176 498.973 752.843 495.073C739.843 483.373 686.109 472.973 653.609 488.139C625.009 502.006 702.143 510.673 743.743 524.539Z" fill="#423232"/>
<path d="M873.308 531.473C865.941 534.073 858.141 526.273 859.441 517.173C859.874 512.406 861.608 507.639 865.074 504.173C875.474 493.773 911.008 485.539 933.541 501.573C953.041 515.006 907.108 518.906 873.308 531.473Z" fill="#423232"/>
<path d="M809.297 750.856C809.297 750.856 820.564 744.789 826.631 755.189C832.697 765.589 817.964 777.289 817.964 777.289C817.964 777.289 834.431 789.423 823.164 804.589C814.064 816.723 800.198 815.856 800.198 815.856" stroke="#423232" stroke-width="13" stroke-miterlimit="10" stroke-linecap="round" stroke-linejoin="round"/>
<path d="M758.063 943.132C758.063 943.132 701.735 958.903 623.627 934.53C545.52 910.157 469.29 846 469.29 846C469.29 846 444.506 846.358 435.118 864.279C426.105 882.201 426.481 919.118 412.211 929.154C408.832 931.304 399.444 933.813 385.55 937.397C363.019 943.491 329.597 952.809 295.801 971.089C270.641 984.709 245.106 1002.99 223.702 1028.08C213.938 1039.55 205.301 1052.45 197.791 1067.15C138.459 1182.2 163.994 1343.49 163.994 1343.49H1081.76C1081.76 1343.49 1055.1 1144.21 997.643 1078.62C940.188 1013.02 830.538 959.978 798.243 945.999V925.211C798.619 925.211 778.716 937.756 758.063 943.132Z" fill="#48D89E"/>
<mask id="mask1_26_635" style="mask-type:alpha" maskUnits="userSpaceOnUse" x="158" y="846" width="924" height="498">
<path d="M758.063 943.132C758.063 943.132 701.735 958.903 623.627 934.53C545.52 910.157 469.29 846 469.29 846C469.29 846 444.506 846.358 435.118 864.279C426.105 882.201 426.481 919.118 412.211 929.154C408.832 931.304 399.444 933.813 385.55 937.397C363.019 943.491 329.597 952.809 295.801 971.089C270.641 984.709 245.106 1002.99 223.702 1028.08C213.938 1039.55 205.301 1052.45 197.791 1067.15C138.459 1182.2 163.994 1343.49 163.994 1343.49H1081.76C1081.76 1343.49 1055.1 1144.21 997.643 1078.62C940.188 1013.02 830.538 959.978 798.243 945.999V925.211C798.619 925.211 778.716 937.756 758.063 943.132Z" fill="#48D89E"/>
</mask>
<g mask="url(#mask1_26_635)">
<path d="M311.948 1080.05C333.932 1080.05 351.753 1063.04 351.753 1042.06C351.753 1021.07 333.932 1004.06 311.948 1004.06C289.965 1004.06 272.143 1021.07 272.143 1042.06C272.143 1063.04 289.965 1080.05 311.948 1080.05Z" fill="#FCED7E"/>
<path d="M538.385 1062.49C560.369 1062.49 578.19 1045.48 578.19 1024.49C578.19 1003.51 560.369 986.501 538.385 986.501C516.401 986.501 498.58 1003.51 498.58 1024.49C498.58 1045.48 516.401 1062.49 538.385 1062.49Z" fill="#FCED7E"/>
<path d="M709.621 981.842C731.604 981.842 749.426 964.832 749.426 943.849C749.426 922.866 731.604 905.856 709.621 905.856C687.637 905.856 669.816 922.866 669.816 943.849C669.816 964.832 687.637 981.842 709.621 981.842Z" fill="#FCED7E"/>
<path d="M467.788 1248.51C489.771 1248.51 507.593 1231.5 507.593 1210.51C507.593 1189.53 489.771 1172.52 467.788 1172.52C445.804 1172.52 427.983 1189.53 427.983 1210.51C427.983 1231.5 445.804 1248.51 467.788 1248.51Z" fill="#FCED7E"/>
<path d="M931.176 1229.15C953.16 1229.15 970.981 1212.14 970.981 1191.16C970.981 1170.18 953.16 1153.17 931.176 1153.17C909.193 1153.17 891.371 1170.18 891.371 1191.16C891.371 1212.14 909.193 1229.15 931.176 1229.15Z" fill="#FCED7E"/>
<path d="M711.874 1198.33C733.857 1198.33 751.679 1181.32 751.679 1160.34C751.679 1139.35 733.857 1122.34 711.874 1122.34C689.89 1122.34 672.069 1139.35 672.069 1160.34C672.069 1181.32 689.89 1198.33 711.874 1198.33Z" fill="#FCED7E"/>
<path d="M900.383 1044.21C922.367 1044.21 940.188 1027.2 940.188 1006.21C940.188 985.231 922.367 968.222 900.383 968.222C878.4 968.222 860.579 985.231 860.579 1006.21C860.579 1027.2 878.4 1044.21 900.383 1044.21Z" fill="#FCED7E"/>
</g>
<path d="M798.619 946C798.619 946 803.501 978.258 794.864 996.537C780.97 1026.64 684.462 1061.05 567.676 1020.91C474.923 989.01 429.486 944.924 428.359 938.114" stroke="#329369" stroke-width="3" stroke-miterlimit="10" stroke-linecap="round" stroke-linejoin="round"/>
<path d="M498.581 882.559C496.703 884.71 494.826 887.577 493.324 891.161C488.067 903.348 486.564 928.795 486.564 928.795" stroke="#329369" stroke-width="3" stroke-miterlimit="10" stroke-linecap="round" stroke-linejoin="round"/>
<path d="M562.043 919.476C560.541 922.344 559.039 925.57 558.288 929.154C556.411 938.473 554.157 967.863 554.157 967.863" stroke="#329369" stroke-width="3" stroke-miterlimit="10" stroke-linecap="round" stroke-linejoin="round"/>
<path d="M625.882 944.566C625.131 947.433 624.38 951.017 624.004 955.318C623.253 960.336 623.629 990.802 623.629 990.802" stroke="#329369" stroke-width="3" stroke-miterlimit="10" stroke-linecap="round" stroke-linejoin="round"/>
<path d="M694.226 958.903C694.977 967.146 695.352 978.616 694.226 992.594" stroke="#329369" stroke-width="3" stroke-miterlimit="10" stroke-linecap="round" stroke-linejoin="round"/>
<path d="M751.68 956.036C752.806 962.846 753.933 972.164 754.309 983.992" stroke="#329369" stroke-width="3" stroke-miterlimit="10" stroke-linecap="round" stroke-linejoin="round"/>
<path d="M457.649 847.434C448.637 850.66 436.62 859.262 432.114 884.351" stroke="#329369" stroke-width="3" stroke-miterlimit="10" stroke-linecap="round" stroke-linejoin="round"/>
<path d="M842.93 967.146C823.778 957.11 808.007 949.942 798.619 945.999V925.211" stroke="#329369" stroke-width="3" stroke-miterlimit="10" stroke-linecap="round" stroke-linejoin="round"/>
<path d="M1054.82 923.492C1030.29 869.415 1011.46 876.828 1028.54 827.984C1045.62 779.576 1023.72 745.123 978.606 699.331C935.682 655.72 931.302 608.184 932.616 601.206C928.674 619.523 926.922 638.276 926.046 656.592C924.732 681.015 925.17 705.001 923.418 728.987C919.914 782.628 907.212 835.398 849.396 885.115C823.992 906.92 791.58 922.62 755.664 930.034C746.028 959.253 760.482 980.187 792.018 983.676C823.554 987.165 836.694 1034.26 908.088 1056.51C1014.96 1090.96 1079.35 977.57 1054.82 923.492Z" fill="#766027"/>
<path d="M855.091 395.798C864.289 400.595 872.173 396.234 876.991 386.64C927.799 378.79 939.625 479.967 941.377 486.073C943.129 492.615 944.005 510.931 940.501 561.084C938.311 588.995 1101.25 391.001 952.327 307.267C963.277 291.131 955.393 210.887 863.851 191.262C831.001 184.284 788.077 214.812 734.203 203.037C523.525 156.373 304.963 200.856 322.045 477.787C325.987 538.406 329.929 603.823 226.561 647.434C106.549 698.023 112.681 830.165 197.215 857.203C232.255 868.542 116.623 947.042 184.075 1016.82C219.115 1053.45 281.749 979.314 345.259 1019.44C441.181 1080.06 488.923 1052.58 507.757 1028.6C546.301 979.751 498.559 881.626 498.559 881.626C498.559 881.626 517.393 851.534 523.525 835.398C553.309 756.026 482.353 720.265 482.353 720.265C372.853 678.398 392.563 556.723 445.999 549.745C502.063 542.767 519.583 592.484 522.649 604.695C522.649 604.695 572.143 672.728 667.627 517.473C762.235 362.217 813.919 373.556 855.091 395.798Z" fill="#766027"/>
</g>
</svg>
